<?xml version="1.0" standalone="no"?>
<!DOCTYPE svg PUBLIC "-//W3C//DTD SVG 20010904//EN"
 "http://www.w3.org/TR/2001/REC-SVG-20010904/DTD/svg10.dtd">
<svg version="1.0" xmlns="http://www.w3.org/2000/svg"
 width="300.000000pt" height="223.000000pt" viewBox="0 0 300.000000 223.000000"
 preserveAspectRatio="xMidYMid meet">
<metadata>
Created by potrace 1.10, written by Peter Selinger 2001-2011
</metadata>
<g transform="translate(0.000000,223.000000) scale(0.100000,-0.100000)"
fill="#14ac9f" stroke="none">
<path d="M1480 1821 c0 -6 -10 -11 -22 -11 -34 1 -67 -5 -74 -13 -4 -4 -14 -7
-22 -7 -34 0 -180 -83 -230 -130 -54 -51 -125 -145 -125 -167 0 -7 -4 -13 -9
-13 -4 0 -8 -7 -8 -15 0 -8 -4 -23 -9 -33 -26 -51 -33 -71 -27 -80 3 -6 2 -13
-3 -16 -4 -3 -9 -26 -9 -52 -1 -25 -7 -52 -13 -60 -9 -11 -9 -14 0 -14 7 0 12
-10 11 -22 -1 -13 -1 -25 0 -28 1 -3 3 -16 5 -30 19 -154 126 -321 267 -415
85 -56 268 -114 299 -94 7 4 21 3 30 -2 12 -6 20 -5 24 2 4 6 13 8 21 5 8 -3
38 -1 67 5 52 10 59 13 127 42 19 9 37 15 40 14 15 -3 170 126 170 141 0 5 8
16 18 26 11 9 36 51 58 94 21 42 42 79 45 82 3 3 5 14 3 24 -1 11 0 25 4 30
16 26 24 226 10 226 -6 0 -8 10 -5 22 4 12 1 28 -5 35 -6 7 -7 13 -4 13 4 0 0
12 -8 28 -14 27 -28 61 -30 73 -1 4 -13 26 -28 49 -16 23 -28 47 -28 53 -1 13
-30 -22 -30 -35 0 -4 9 -8 21 -8 16 0 19 -4 14 -20 -5 -15 -2 -20 10 -20 13 0
16 -6 12 -21 -4 -15 0 -23 13 -26 15 -4 17 -9 10 -23 -7 -13 -6 -20 6 -24 10
-4 13 -13 9 -25 -4 -12 0 -21 11 -25 14 -5 14 -9 3 -22 -11 -13 -10 -17 5 -26
13 -8 15 -13 5 -24 -8 -10 -8 -18 0 -27 8 -10 7 -17 -1 -25 -8 -8 -8 -15 2
-27 12 -14 11 -18 0 -25 -11 -7 -11 -11 -1 -23 10 -13 9 -17 -5 -25 -15 -8
-16 -13 -5 -25 10 -13 9 -17 -5 -25 -16 -9 -16 -12 -4 -27 12 -14 11 -17 -8
-22 -17 -4 -20 -9 -12 -23 7 -14 5 -19 -10 -23 -13 -3 -17 -11 -13 -26 4 -15
1 -21 -12 -21 -11 0 -15 -5 -10 -19 4 -13 0 -20 -15 -24 -13 -3 -18 -10 -14
-21 4 -12 0 -16 -16 -16 -17 0 -21 -4 -17 -20 4 -15 0 -20 -14 -20 -13 0 -19
-7 -19 -21 0 -16 -4 -19 -20 -14 -16 5 -20 2 -20 -15 0 -16 -4 -20 -16 -16
-11 4 -18 -1 -21 -14 -4 -14 -11 -19 -23 -15 -12 4 -19 -1 -23 -17 -5 -18 -9
-20 -19 -10 -18 18 -28 15 -28 -8 0 -18 -3 -19 -20 -10 -16 9 -22 8 -26 -5 -4
-10 -13 -13 -25 -10 -12 4 -21 1 -25 -10 -5 -12 -9 -13 -20 -4 -11 9 -18 8
-29 -1 -12 -10 -18 -10 -29 -1 -11 10 -16 9 -23 -4 -9 -15 -11 -15 -23 -1 -10
13 -16 14 -26 5 -10 -8 -18 -8 -27 0 -10 8 -17 7 -26 -2 -10 -9 -14 -8 -22 6
-9 15 -13 16 -26 6 -12 -11 -17 -10 -25 5 -7 13 -13 14 -23 6 -11 -9 -16 -6
-25 10 -9 17 -14 19 -26 9 -12 -10 -16 -9 -21 9 -4 18 -9 20 -24 11 -16 -8
-19 -6 -19 11 0 14 -6 19 -22 17 -14 -1 -23 4 -23 13 0 10 -8 14 -24 12 -20
-3 -22 0 -16 19 6 19 4 21 -14 16 -17 -4 -21 -1 -21 19 0 18 -6 24 -20 24 -14
0 -20 6 -18 18 2 12 -3 16 -16 14 -15 -3 -18 1 -13 18 4 16 1 24 -12 27 -13 3
-17 11 -14 24 4 13 0 19 -12 19 -12 0 -15 5 -10 20 4 13 1 22 -10 26 -10 4
-13 13 -10 25 4 12 1 21 -10 25 -12 5 -13 9 -3 21 10 12 9 17 -6 25 -14 8 -15
12 -5 25 11 12 10 17 -5 25 -16 9 -16 11 -1 28 15 16 15 18 -1 24 -16 6 -15 8
1 26 17 19 17 20 0 26 -17 7 -17 8 1 21 14 10 15 16 6 25 -16 16 -15 28 3 28
17 0 20 16 5 25 -15 9 -12 25 5 25 11 0 14 7 9 25 -5 19 -2 25 10 25 19 0 21
16 4 26 -8 5 -4 10 10 15 14 6 19 14 15 28 -4 15 -1 21 11 21 9 0 16 8 16 20
0 11 7 20 15 20 8 0 15 9 15 20 0 13 7 20 19 20 12 0 18 7 17 18 -1 11 6 17
19 17 14 0 19 6 17 19 -3 15 1 18 17 13 16 -4 21 0 21 15 0 15 5 19 20 15 15
-4 20 0 20 15 0 17 5 19 25 14 19 -5 25 -2 25 9 0 12 6 15 19 10 13 -4 23 0
29 12 8 14 13 15 25 5 13 -11 16 -9 22 8 6 18 9 19 22 8 12 -10 17 -9 28 5 11
16 14 16 25 1 12 -14 14 -14 23 1 7 13 12 14 23 4 11 -9 18 -8 30 2 13 10 17
10 24 -1 7 -11 11 -12 25 0 13 11 18 10 29 -5 9 -13 15 -15 20 -7 10 17 26 15
26 -3 0 -18 16 -20 26 -3 5 8 11 6 20 -7 8 -10 20 -15 29 -11 9 3 18 -1 22 -9
3 -10 12 -13 24 -10 14 5 19 1 19 -10 0 -13 6 -16 21 -12 15 4 23 0 26 -14 4
-14 11 -18 24 -14 15 5 19 1 19 -15 0 -14 5 -20 18 -18 11 2 17 -3 16 -14 -1
-11 5 -18 17 -18 12 0 19 -7 19 -20 0 -13 7 -20 20 -20 25 0 25 2 0 42 -11 18
-20 29 -20 25 0 -5 -6 -2 -13 5 -8 7 -26 22 -41 33 -16 11 -33 25 -40 31 -49
45 -196 95 -292 98 -39 2 -76 6 -82 10 -7 4 -12 2 -12 -3z"/>
<path d="M1445 1750 c-246 -51 -416 -232 -445 -474 -24 -198 69 -394 243 -511
114 -77 306 -108 438 -69 181 53 333 207 379 384 7 25 12 88 12 140 0 113 -26
203 -87 294 -68 103 -192 193 -310 225 -57 15 -183 21 -230 11z m197 -31 c187
-39 353 -202 394 -387 72 -322 -168 -625 -496 -625 -382 -1 -628 386 -465 732
99 209 339 327 567 280z"/>
<path d="M1410 1692 c-297 -78 -449 -408 -316 -687 42 -87 93 -147 169 -196
272 -176 633 -55 737 247 30 85 35 184 16 267 -22 94 -56 155 -127 232 -124
132 -302 183 -479 137z m235 -22 c57 -11 136 -46 143 -62 2 -5 9 -8 16 -8 41
0 166 -175 180 -253 3 -12 5 -22 6 -22 6 0 11 -53 11 -118 0 -180 -98 -331
-271 -415 -70 -34 -81 -36 -177 -38 -69 -1 -111 3 -128 12 -19 9 -24 10 -18 1
5 -9 3 -9 -8 -1 -8 7 -27 15 -44 18 -48 10 -156 97 -198 159 -130 189 -114
431 39 596 46 50 78 71 169 113 77 34 170 41 280 18z"/>
<path d="M1719 1351 c-21 -17 -22 -21 -11 -46 15 -33 10 -42 -11 -20 -23 22
-99 20 -121 -4 -17 -18 -17 -20 4 -41 11 -11 20 -29 19 -38 -4 -44 3 -79 22
-101 11 -13 22 -21 26 -17 3 3 -1 14 -10 24 -12 13 -17 37 -17 79 0 54 -2 61
-22 67 -35 9 -3 26 50 26 36 0 42 -3 42 -20 0 -14 -6 -20 -17 -18 -16 3 -18
-6 -18 -69 -1 -70 6 -90 19 -57 3 9 6 35 6 59 0 24 6 48 14 54 12 10 14 3 11
-49 -2 -46 1 -65 15 -82 16 -20 21 -21 45 -10 21 10 31 10 41 1 11 -9 21 -9
38 -1 17 7 27 7 34 0 8 -8 18 -6 37 6 25 17 25 18 24 137 -2 105 -5 121 -21
130 -12 6 -25 6 -38 -1 -14 -8 -26 -8 -41 0 -16 9 -24 8 -38 -4 -16 -15 -19
-15 -31 -1 -16 19 -23 19 -51 -4z m51 -32 c0 -12 -7 -19 -19 -19 -26 0 -36 17
-21 35 15 18 40 8 40 -16z m76 -8 c-4 -6 -16 -11 -27 -11 -21 0 -27 35 -6 43
16 6 41 -18 33 -32z m74 8 c0 -12 -7 -19 -20 -19 -22 0 -29 35 -7 43 18 6 27
-2 27 -24z m-123 -45 c-9 -9 -28 6 -21 18 4 6 10 6 17 -1 6 -6 8 -13 4 -17z
m78 6 c-3 -5 -10 -10 -16 -10 -5 0 -9 5 -9 10 0 6 7 10 16 10 8 0 12 -4 9 -10z
m-35 -96 c0 -68 -3 -84 -15 -84 -12 0 -15 15 -15 74 0 79 6 109 21 100 5 -3 9
-43 9 -90z m80 -6 c0 -71 -2 -78 -20 -78 -18 0 -20 7 -20 71 0 75 15 123 31
98 5 -8 9 -49 9 -91z m-157 6 c-1 -64 -4 -80 -17 -82 -14 -3 -16 9 -16 76 0
43 3 82 7 86 18 18 26 -7 26 -80z"/>
<path d="M1178 1293 c-14 -2 -32 -10 -38 -18 -12 -15 -20 -176 -9 -169 4 2 9
-3 13 -11 8 -21 43 -19 56 4 5 11 10 40 10 64 0 33 4 47 17 51 23 9 43 -19 43
-59 0 -18 9 -42 19 -54 l20 -22 21 21 c11 11 18 25 15 30 -3 5 0 12 7 16 7 4
10 4 6 -1 -4 -4 7 -19 24 -34 24 -19 43 -26 76 -26 38 0 48 5 73 35 19 23 29
45 29 68 0 45 -13 66 -55 92 -47 29 -94 21 -131 -23 l-28 -32 -37 38 c-37 38
-54 42 -131 30z m29 -24 c33 14 68 4 95 -25 22 -26 29 -129 8 -129 -11 0 -17
15 -20 50 -7 64 -14 75 -50 75 -40 0 -63 -36 -59 -92 3 -34 0 -43 -14 -46 -15
-3 -17 6 -17 81 0 82 6 109 21 86 5 -9 14 -9 36 0z m311 -25 c40 -45 25 -106
-33 -130 -58 -24 -115 14 -115 76 0 80 94 114 148 54z"/>
<path d="M1408 1215 c-17 -38 3 -75 42 -75 21 0 34 8 46 25 15 23 15 27 0 50
-12 17 -25 25 -46 25 -23 0 -33 -6 -42 -25z m66 -18 c7 -11 7 -20 0 -27 -15
-15 -44 -2 -44 19 0 35 25 39 44 8z"/>
</g>
</svg>
