<?xml version="1.0" standalone="no"?>
<!DOCTYPE svg PUBLIC "-//W3C//DTD SVG 20010904//EN"
 "http://www.w3.org/TR/2001/REC-SVG-20010904/DTD/svg10.dtd">
<svg version="1.0" xmlns="http://www.w3.org/2000/svg"
 width="300.000000pt" height="206.000000pt" viewBox="0 0 300.000000 206.000000"
 preserveAspectRatio="xMidYMid meet">
<metadata>
Created by potrace 1.10, written by Peter Selinger 2001-2011
</metadata>
<g transform="translate(0.000000,206.000000) scale(0.100000,-0.100000)"
fill="#14ac9f" stroke="none">
<path d="M841 1332 c-160 -1 -249 -6 -258 -13 -10 -9 -13 -65 -13 -260 l0
-249 239 0 c213 0 241 2 260 18 21 17 21 22 19 262 l-3 245 -244 -3z m214
-257 l0 -230 -229 0 -229 0 1 223 c1 123 4 227 7 233 4 5 98 8 228 6 l222 -2
0 -230z"/>
<path d="M707 1192 c-21 -23 -21 -36 -1 -53 16 -13 16 -78 -1 -142 -5 -17 -3
-33 5 -42 15 -18 83 -20 110 -3 16 10 24 10 40 0 55 -34 84 -3 82 92 -1 39 4
83 10 99 8 22 8 31 -5 45 -21 23 -64 26 -95 6 -20 -13 -26 -14 -40 -2 -27 22
-85 22 -105 0z m118 -69 c46 -79 55 -84 48 -31 -4 24 -10 45 -14 46 -5 2 -9
13 -9 25 0 19 6 22 45 22 40 0 45 -2 45 -22 0 -13 -4 -23 -10 -23 -6 0 -10
-37 -10 -90 0 -88 0 -90 -24 -90 -19 0 -32 15 -65 70 -23 39 -44 70 -45 70 -8
0 7 -85 15 -88 5 -2 9 -15 9 -28 0 -22 -4 -24 -45 -24 -41 0 -45 2 -45 25 0
14 6 25 13 25 8 0 12 20 12 65 0 45 -4 65 -12 65 -7 0 -13 10 -13 23 0 20 5
23 34 23 32 -1 38 -7 71 -63z"/>
<path d="M1964 1216 c-10 -26 4 -48 28 -44 17 2 23 10 23 28 0 18 -6 26 -23
28 -13 2 -25 -3 -28 -12z"/>
<path d="M2124 1215 c-10 -25 4 -45 30 -45 27 0 42 26 25 46 -15 19 -48 18
-55 -1z"/>
<path d="M2290 1215 c-10 -12 -10 -18 0 -30 20 -25 55 -15 55 15 0 30 -35 40
-55 15z"/>
<path d="M1160 1199 c0 -6 7 -9 15 -5 13 5 15 -13 15 -124 0 -109 -2 -130 -15
-130 -8 0 -15 -4 -15 -10 0 -5 18 -10 40 -10 22 0 40 5 40 10 0 6 -4 10 -9 10
-12 0 -20 222 -8 237 10 13 27 8 27 -7 0 -5 -7 -7 -15 -4 -21 8 -9 -21 57
-148 49 -94 53 -98 85 -98 l33 0 0 141 c0 91 4 138 10 134 6 -3 10 -1 10 4 0
6 -18 11 -40 11 -22 0 -40 -4 -40 -10 0 -5 7 -10 16 -10 13 0 15 -17 13 -120
-1 -66 -5 -120 -9 -120 -12 0 -51 61 -46 73 2 7 5 5 5 -4 1 -18 28 -45 37 -36
3 2 -20 55 -50 116 l-56 111 -50 0 c-30 0 -50 -4 -50 -11z m130 -109 c0 -13
-1 -13 -10 0 -5 8 -10 22 -10 30 0 13 1 13 10 0 5 -8 10 -22 10 -30z"/>
<path d="M1780 1150 c0 -23 -4 -30 -20 -30 -11 0 -20 -5 -20 -11 0 -6 9 -8 20
-4 19 6 20 2 20 -77 0 -90 8 -108 48 -108 28 0 62 17 62 31 0 6 -6 6 -19 0
-10 -6 -21 -7 -25 -4 -3 3 -6 42 -6 85 0 74 1 79 19 73 11 -3 22 -1 26 5 4 6
-4 10 -19 10 -22 0 -26 4 -26 30 0 27 -3 30 -30 30 -27 0 -30 -3 -30 -30z m34
-62 c-4 -80 -6 -83 -13 -28 -7 49 -3 90 9 90 4 0 6 -28 4 -62z m4 -109 c2 -19
-2 -28 -8 -24 -12 7 -14 55 -2 55 4 0 9 -14 10 -31z"/>
<path d="M1564 1133 c-12 -2 -34 -18 -50 -34 -23 -24 -29 -39 -29 -75 0 -39 5
-50 33 -75 25 -22 42 -29 75 -29 86 1 132 82 91 161 -13 27 -69 62 -91 58 -4
-1 -18 -4 -29 -6z m63 -43 c16 -31 16 -77 2 -118 -25 -72 -79 -35 -79 55 0 85
47 123 77 63z m-110 -72 c-3 -8 -6 -5 -6 6 -1 11 2 17 5 13 3 -3 4 -12 1 -19z
m163 12 c0 -5 -4 -10 -10 -10 -5 0 -10 5 -10 10 0 6 5 10 10 10 6 0 10 -4 10
-10z"/>
<path d="M2113 1128 c-18 -5 -33 -13 -33 -18 0 -6 10 -8 23 -5 22 6 22 4 19
-69 -4 -90 7 -116 49 -116 34 0 69 16 69 31 0 6 -6 6 -18 0 -32 -17 -42 6 -42
95 0 91 -6 98 -67 82z m44 -145 c-2 -21 -4 -4 -4 37 0 41 2 58 4 38 2 -21 2
-55 0 -75z"/>
<path d="M1925 1116 c-16 -12 -17 -15 -4 -16 8 0 20 5 27 12 9 9 12 -8 12 -78
0 -57 4 -94 12 -102 16 -16 57 -15 88 3 26 15 21 19 -17 15 -21 -1 -22 3 -25
87 l-3 88 -35 3 c-20 2 -44 -4 -55 -12z m69 -51 c3 -8 1 -15 -4 -15 -6 0 -10
7 -10 15 0 8 2 15 4 15 2 0 6 -7 10 -15z m6 -88 c0 -5 -4 -5 -10 -2 -5 3 -10
14 -10 23 0 15 2 15 10 2 5 -8 10 -19 10 -23z"/>
<path d="M2249 1114 c-13 -16 -12 -17 14 -10 l27 6 0 -83 c0 -89 8 -107 48
-107 28 0 62 17 62 31 0 6 -7 6 -20 -1 -26 -14 -29 -6 -32 95 l-3 80 -41 3
c-29 2 -45 -2 -55 -14z"/>
</g>
</svg>
